<?xml version="1.0" standalone="no"?>
<!DOCTYPE svg PUBLIC "-//W3C//DTD SVG 20010904//EN"
 "http://www.w3.org/TR/2001/REC-SVG-20010904/DTD/svg10.dtd">
<svg version="1.0" xmlns="http://www.w3.org/2000/svg"
 width="1600.000000pt" height="1600.000000pt" viewBox="0 0 1600.000000 1600.000000"
 preserveAspectRatio="xMidYMid meet">
<metadata>
Created by potrace 1.11, written by Peter Selinger 2001-2013
</metadata>
<g transform="translate(0.000000,1600.000000) scale(0.100000,-0.100000)"
fill="#000000" stroke="none">
<path d="M2956 10302 c-2 -1 -39 -5 -82 -7 -81 -5 -112 -9 -174 -19 -19 -3
-52 -8 -72 -11 -121 -16 -369 -85 -475 -131 -17 -8 -33 -14 -36 -14 -3 0 -36
-14 -74 -32 -37 -17 -70 -32 -73 -33 -3 0 -16 -7 -30 -14 -14 -8 -54 -30 -90
-49 -386 -208 -718 -554 -915 -951 -30 -60 -55 -112 -55 -114 0 -3 -10 -26
-22 -53 -12 -27 -21 -52 -20 -56 1 -4 -7 -28 -18 -53 -11 -25 -20 -47 -20 -50
0 -3 0 -6 -1 -7 -4 -14 -40 -155 -44 -173 -3 -11 -8 -33 -11 -50 -4 -16 -8
-39 -10 -50 -7 -54 -17 -122 -20 -140 -4 -19 -14 -188 -18 -285 -1 -25 2 -54
5 -66 4 -11 3 -27 -1 -34 -5 -8 -6 -18 -4 -22 3 -5 7 -39 9 -76 2 -37 6 -87
10 -112 3 -25 8 -61 10 -80 18 -140 76 -365 121 -467 8 -17 14 -34 14 -38 0
-20 122 -264 161 -323 16 -24 29 -45 29 -47 0 -11 101 -148 113 -153 4 -2 7
-8 7 -13 0 -14 42 -61 180 -201 68 -69 128 -124 132 -122 5 3 8 0 8 -6 0 -5
15 -19 32 -30 18 -11 29 -20 23 -20 -5 0 -1 -6 11 -13 11 -6 76 -49 142 -94
67 -45 122 -79 122 -76 0 3 8 -1 18 -10 44 -40 482 -222 482 -200 0 3 6 1 12
-5 7 -5 40 -16 73 -23 33 -7 67 -14 75 -16 23 -6 57 -13 84 -17 13 -2 32 -7
43 -10 10 -3 43 -8 73 -12 30 -3 66 -8 80 -10 176 -26 545 -20 745 12 22 3 51
7 65 9 14 2 25 4 25 5 0 1 9 3 20 5 57 8 100 18 119 25 12 4 26 8 31 9 6 1 28
6 50 12 22 6 45 12 50 14 6 1 17 4 25 7 8 3 58 21 110 39 52 18 97 36 98 41 2
4 11 8 19 8 39 0 382 197 448 257 11 10 38 31 60 48 22 16 83 72 136 125 91
90 142 155 442 565 295 403 389 531 400 545 7 8 41 53 76 100 80 106 122 161
139 178 6 7 12 16 12 20 1 4 16 24 34 45 l33 39 -1 -46 c-1 -25 1 -46 4 -46 3
0 7 -19 8 -42 1 -24 4 -52 6 -63 2 -11 11 -60 21 -110 48 -259 157 -539 295
-755 30 -47 58 -89 63 -95 4 -5 33 -44 64 -85 77 -102 289 -312 397 -394 105
-79 198 -141 209 -138 4 1 7 -3 7 -8 0 -6 7 -10 15 -10 8 0 15 -3 15 -8 0 -4
15 -13 33 -21 17 -8 46 -24 62 -35 17 -12 31 -20 33 -18 1 1 33 -11 70 -29
112 -52 373 -140 457 -155 11 -2 40 -8 65 -14 25 -5 63 -12 85 -14 22 -2 56
-7 75 -11 60 -12 82 -14 195 -21 169 -11 403 -7 535 10 115 15 142 19 205 32
39 9 81 18 95 20 61 12 232 65 305 95 17 7 37 13 45 15 21 4 64 27 72 39 4 5
8 7 8 2 0 -12 190 88 289 153 132 86 221 159 326 265 91 91 112 116 184 215
22 30 44 60 48 65 5 6 38 51 74 101 36 50 71 97 77 105 7 8 37 48 67 89 74
103 215 296 238 325 4 5 45 62 92 125 46 63 87 120 92 125 5 6 20 26 33 45 14
19 27 37 30 40 3 3 21 25 40 50 19 25 38 47 42 48 5 2 8 10 8 18 0 8 4 14 8
14 4 0 15 12 24 28 20 33 68 86 73 80 2 -2 5 -26 6 -53 2 -44 30 -233 44 -290
19 -81 36 -146 49 -182 8 -22 12 -44 9 -47 -4 -3 -1 -6 6 -6 7 0 10 -4 7 -8
-3 -5 1 -19 8 -33 7 -13 13 -27 14 -31 17 -57 107 -249 147 -313 58 -94 123
-192 147 -224 15 -20 34 -44 42 -54 46 -61 236 -263 236 -252 0 2 13 -9 28
-23 142 -137 381 -289 597 -382 55 -23 109 -46 120 -51 63 -27 244 -80 324
-95 14 -3 27 -7 31 -9 4 -2 29 -7 56 -11 27 -3 52 -8 55 -10 3 -2 35 -6 69 -9
35 -4 67 -8 70 -10 13 -8 219 -18 350 -17 176 1 285 8 430 29 25 3 54 7 65 9
11 1 22 3 25 4 3 1 8 2 11 2 4 -1 22 3 40 9 19 5 50 12 69 15 19 3 78 17 130
30 52 14 103 27 113 29 10 2 44 14 75 26 31 11 65 22 74 24 32 7 243 98 328
143 163 85 366 219 376 247 5 11 8 417 9 903 l0 882 -25 1 c-152 3 -753 -1
-758 -5 -3 -3 -6 -316 -6 -694 -1 -566 -3 -692 -15 -705 -7 -9 -17 -15 -21
-12 -4 3 -20 -5 -34 -16 -15 -11 -32 -22 -39 -23 -6 -1 -17 -5 -23 -9 -56 -35
-335 -120 -436 -133 -24 -3 -54 -8 -68 -10 -14 -3 -65 -7 -115 -11 -198 -14
-394 -4 -535 28 -25 5 -55 12 -67 14 -13 3 -31 7 -41 9 -49 11 -204 68 -267
97 -70 33 -233 129 -257 152 -7 7 -31 25 -53 41 -73 54 -272 263 -284 299 -2
7 -7 14 -10 17 -30 23 -155 259 -175 330 -1 3 -12 34 -24 70 -24 73 -27 86
-56 245 -18 99 -24 286 -13 415 6 82 32 255 37 255 1 0 3 7 5 16 1 9 10 42 19
73 9 31 17 58 17 61 0 10 71 170 97 220 29 55 116 187 147 223 84 98 207 208
315 282 130 89 155 105 180 116 112 51 142 64 145 64 2 0 16 5 32 12 33 13 28
12 73 22 19 5 39 11 45 14 5 3 16 7 25 8 8 2 38 8 65 14 53 11 94 19 135 26
38 6 209 17 270 17 75 0 248 -11 285 -18 146 -27 204 -42 295 -72 58 -19 121
-43 140 -53 19 -10 64 -32 100 -50 36 -18 77 -41 92 -52 14 -10 31 -18 36 -18
6 0 12 -4 14 -8 2 -5 23 -22 48 -39 25 -17 56 -40 70 -52 14 -11 40 -33 58
-48 19 -16 51 -44 72 -65 l37 -36 150 146 c82 81 164 159 182 175 18 15 30 27
27 27 -3 0 11 15 31 34 21 19 60 55 86 81 48 46 48 47 30 68 -34 41 -159 162
-203 197 -24 19 -50 42 -59 50 -31 29 -218 145 -316 197 -114 59 -318 140
-400 159 -5 1 -46 12 -90 23 -44 12 -93 24 -110 27 -61 10 -81 14 -105 19 -14
3 -49 8 -78 10 -30 3 -57 7 -60 9 -14 8 -221 19 -362 18 -164 -1 -295 -9 -405
-26 -48 -7 -198 -35 -222 -41 -13 -3 -31 -7 -40 -9 -61 -15 -135 -36 -143 -41
-6 -4 -21 -8 -34 -11 -62 -11 -321 -125 -456 -201 -104 -59 -135 -78 -244
-153 -60 -41 -116 -79 -124 -85 -18 -11 -20 -13 -167 -130 -60 -48 -111 -92
-113 -96 -2 -5 -7 -9 -12 -9 -12 0 -115 -97 -284 -265 -167 -167 -227 -231
-366 -395 -30 -36 -57 -67 -60 -70 -3 -3 -30 -36 -60 -75 -30 -38 -64 -81 -77
-94 -13 -13 -23 -27 -23 -32 0 -4 -11 -19 -25 -33 -14 -14 -25 -27 -25 -30 0
-5 -8 -16 -52 -68 -10 -12 -18 -24 -18 -27 0 -3 -10 -18 -22 -31 -13 -14 -34
-41 -48 -60 -13 -19 -28 -39 -32 -45 -14 -16 -153 -213 -210 -295 -28 -41 -54
-77 -57 -80 -3 -3 -24 -32 -46 -65 -22 -33 -43 -61 -47 -63 -5 -2 -8 -8 -8
-13 0 -6 -5 -15 -11 -22 -6 -7 -71 -100 -145 -207 -154 -223 -165 -238 -181
-255 -7 -8 -13 -17 -13 -20 0 -4 -15 -28 -32 -53 -43 -61 -44 -62 -71 -97 -12
-16 -34 -47 -47 -67 -14 -21 -28 -38 -32 -38 -5 0 -8 -6 -8 -13 0 -6 -17 -30
-38 -52 -63 -66 -172 -166 -172 -158 0 4 -6 0 -12 -9 -7 -9 -56 -45 -108 -80
-187 -126 -397 -208 -620 -243 -121 -19 -325 -24 -455 -11 -275 27 -576 134
-761 270 -23 17 -52 38 -65 46 -36 24 -233 221 -260 260 -13 19 -28 40 -34 47
-25 29 -31 39 -38 53 -4 8 -16 29 -27 45 -17 26 -83 158 -110 220 -13 30 -50
141 -56 167 -3 13 -7 34 -10 48 -3 14 -7 33 -10 42 -7 25 -13 58 -20 108 -3
25 -7 59 -9 75 -6 46 -7 272 -2 345 7 90 16 142 38 235 11 44 22 90 24 101 9
39 54 153 95 237 48 97 87 160 155 247 51 66 212 230 226 230 4 0 14 6 21 13
24 23 196 137 207 137 6 0 11 4 11 9 0 8 170 91 194 95 6 1 16 4 21 8 8 4 40
15 135 43 3 1 23 5 45 10 22 5 42 10 45 10 11 3 76 15 105 20 110 18 352 24
453 10 90 -12 167 -25 200 -34 18 -5 35 -10 37 -10 3 -1 6 -1 8 -2 1 0 12 -2
24 -5 12 -2 41 -11 65 -19 24 -9 48 -17 53 -18 21 -5 151 -61 165 -72 8 -6 29
-17 45 -25 17 -8 63 -37 104 -65 40 -27 81 -54 89 -60 9 -5 29 -21 44 -35 16
-14 39 -34 52 -45 12 -11 47 -44 77 -72 l54 -52 80 75 c44 41 136 128 205 193
69 65 154 145 189 178 l64 60 -104 105 c-57 57 -126 122 -154 143 -27 22 -52
43 -55 46 -7 8 -181 122 -210 138 -138 74 -332 164 -360 166 -3 0 -9 3 -15 7
-11 7 -219 67 -250 73 -37 6 -80 15 -105 21 -14 3 -38 8 -55 10 -16 2 -46 7
-65 11 -78 14 -284 27 -415 26 -107 0 -271 -10 -312 -17 -11 -3 -44 -7 -74
-11 -87 -10 -108 -14 -219 -41 -58 -14 -113 -27 -124 -29 -10 -3 -39 -12 -65
-21 -48 -17 -74 -25 -78 -25 -4 0 -197 -80 -223 -93 -156 -78 -372 -211 -493
-302 -31 -24 -59 -44 -62 -44 -3 0 -13 -6 -22 -14 -10 -8 -56 -45 -103 -82
-47 -36 -87 -69 -90 -73 -3 -3 -30 -26 -60 -51 -113 -93 -432 -405 -510 -500
-19 -23 -48 -56 -63 -73 -26 -29 -87 -100 -127 -147 -8 -10 -28 -35 -45 -56
-16 -21 -42 -52 -57 -68 -16 -17 -28 -34 -28 -38 0 -3 -8 -14 -17 -24 -10 -10
-55 -67 -100 -128 -45 -61 -89 -118 -96 -126 -8 -8 -27 -34 -42 -57 -15 -24
-32 -43 -36 -43 -5 0 -9 -4 -9 -10 0 -9 -66 -108 -80 -120 -4 -3 -37 -50 -75
-105 -38 -55 -72 -102 -75 -105 -3 -3 -23 -32 -46 -65 -110 -162 -159 -232
-177 -252 -11 -13 -17 -23 -13 -23 4 0 1 -6 -6 -14 -7 -7 -44 -59 -83 -115
-82 -118 -182 -262 -193 -276 -4 -5 -39 -55 -78 -110 -110 -153 -248 -280
-422 -388 -75 -47 -213 -117 -229 -117 -3 0 -19 -6 -36 -14 -34 -15 -92 -34
-123 -40 -10 -2 -46 -11 -79 -19 -56 -14 -87 -19 -205 -34 -56 -7 -313 -6
-360 2 -19 3 -55 7 -80 10 -25 3 -63 9 -85 15 -22 5 -55 12 -74 15 -19 3 -43
11 -55 17 -11 6 -22 10 -24 9 -4 -4 -66 11 -77 18 -5 4 -28 13 -50 20 -94 32
-313 156 -381 217 -12 10 -36 30 -54 44 -74 57 -195 195 -273 312 -39 60 -129
228 -122 228 3 0 -3 17 -14 38 -20 39 -49 129 -65 200 -3 13 -7 31 -10 40 -7
21 -16 76 -22 122 -2 19 -6 55 -9 80 -16 131 -7 359 20 500 8 41 17 86 19 100
5 28 51 174 65 205 57 127 127 256 143 263 4 2 8 8 8 13 0 13 62 99 72 99 4 0
8 5 8 10 0 21 145 162 260 253 56 44 312 187 335 187 4 0 21 6 38 14 32 15
150 52 191 60 11 3 32 7 46 10 14 3 41 9 60 12 19 4 44 8 55 10 92 17 342 22
445 10 30 -4 73 -9 95 -12 21 -2 55 -9 75 -14 19 -5 46 -11 60 -14 57 -12 97
-24 117 -35 12 -6 26 -10 30 -9 4 1 19 -4 33 -10 86 -38 126 -55 131 -56 3 -1
41 -22 85 -47 110 -65 229 -154 319 -242 l77 -75 41 36 c22 21 53 48 67 62 33
31 271 256 364 343 l69 65 -100 98 c-116 116 -149 145 -223 199 -30 21 -57 42
-60 45 -10 12 -147 94 -205 124 -33 16 -63 35 -67 41 -4 5 -8 7 -8 3 0 -4 -37
10 -82 31 -97 44 -334 126 -355 123 -2 -1 -17 4 -35 9 -18 6 -44 12 -58 15
-14 2 -47 9 -75 14 -95 18 -156 25 -271 34 -29 2 -57 6 -62 10 -6 3 -13 2 -17
-4 -4 -6 -12 -7 -18 -3 -10 6 -275 11 -281 5z"/>
</g>
</svg>
