<?xml version="1.0" encoding="UTF-8" standalone="no"?>
<!-- Created with Inkscape (http://www.inkscape.org/) -->

<svg
   xmlns:dc="http://purl.org/dc/elements/1.1/"
   xmlns:cc="http://creativecommons.org/ns#"
   xmlns:rdf="http://www.w3.org/1999/02/22-rdf-syntax-ns#"
   xmlns:svg="http://www.w3.org/2000/svg"
   xmlns="http://www.w3.org/2000/svg"
   xmlns:sodipodi="http://sodipodi.sourceforge.net/DTD/sodipodi-0.dtd"
   xmlns:inkscape="http://www.inkscape.org/namespaces/inkscape"
   width="100"
   height="50"
   viewBox="0 0 26.458333 13.229168"
   version="1.1"
   id="svg8"
   inkscape:version="0.92.4 (5da689c313, 2019-01-14)"
   sodipodi:docname="icon.svg">
  <defs
     id="defs2" />
  <sodipodi:namedview
     id="base"
     pagecolor="#1e1f2a"
     bordercolor="#666666"
     borderopacity="1.0"
     inkscape:pageopacity="0"
     inkscape:pageshadow="2"
     inkscape:zoom="5.6568542"
     inkscape:cx="50.637118"
     inkscape:cy="29.517444"
     inkscape:document-units="px"
     inkscape:current-layer="layer1"
     showgrid="false"
     units="px"
     scale-x="0.26458"
     inkscape:pagecheckerboard="false"
     showborder="true"
     borderlayer="false"
     inkscape:showpageshadow="false"
     inkscape:window-width="1920"
     inkscape:window-height="1044"
     inkscape:window-x="1920"
     inkscape:window-y="0"
     inkscape:window-maximized="1" />
  <metadata
     id="metadata5">
    <rdf:RDF>
      <cc:Work
         rdf:about="">
        <dc:format>image/svg+xml</dc:format>
        <dc:type
           rdf:resource="http://purl.org/dc/dcmitype/StillImage" />
        <dc:title></dc:title>
      </cc:Work>
    </rdf:RDF>
  </metadata>
  <g
     inkscape:label="Layer 1"
     inkscape:groupmode="layer"
     id="layer1"
     transform="translate(0,-283.77082)">
    <path
       style="font-style:normal;font-variant:normal;font-weight:600;font-stretch:normal;font-size:40px;line-height:1.25;font-family:Montserrat;-inkscape-font-specification:'Montserrat Semi-Bold';letter-spacing:0px;word-spacing:0px;fill:#fff;fill-opacity:1;stroke:none;stroke-width:0.26458335"
       d="m 5.122944,286.57541 c -0.74788,0 -1.42514,0.16603 -2.03191,0.49765 -0.59973,0.32455 -1.07228,0.77588 -1.418,1.35444 -0.34573,0.57855 -0.51884,1.2313 -0.51884,1.95802 0,0.72672 0.16932,1.37946 0.50798,1.95802 0.34573,0.57855 0.81828,1.03367 1.418,1.36529 0.60678,0.32455 1.28455,0.48679 2.03244,0.48679 0.60678,0 1.16045,-0.10614 1.6614,-0.31781 0.508,-0.21167 0.93482,-0.51819 1.28054,-0.92036 0.60099,-0.80585 1.14038,-1.57053 1.6924,-2.27583 0.0402,0.60897 0.20566,1.1631 0.497646,1.66192 0.34572,0.57855 0.81827,1.03367 1.418,1.36529 0.60677,0.32455 1.28454,0.48679 2.03243,0.48679 0.60678,0 1.16045,-0.10614 1.6614,-0.31781 0.508,-0.21167 0.93482,-0.51819 1.28054,-0.92036 0.60125,-0.80619 1.14066,-1.57132 1.69292,-2.27686 0.041,0.60938 0.20974,1.16384 0.50798,1.66295 0.34572,0.57855 0.82156,1.03367 1.42834,1.36529 0.60677,0.32455 1.28782,0.48679 2.04276,0.48679 0.53623,0 1.05832,-0.0811 1.56632,-0.2434 0.508,-0.16227 0.95277,-0.39527 1.33377,-0.69866 v -2.95279 h -1.30173 v 2.30735 c -0.43745,0.254 -0.9459,0.38085 -1.52446,0.38085 -0.51505,0 -0.97674,-0.1127 -1.38596,-0.33848 -0.40217,-0.22577 -0.72008,-0.53609 -0.95291,-0.93121 -0.22578,-0.39511 -0.33848,-0.83988 -0.33848,-1.33376 0,-0.508 0.1127,-0.95933 0.33848,-1.35444 0.13736,-0.2331 0.30794,-0.43184 0.50436,-0.60358 0.1568,-0.1153 0.31681,-0.22773 0.48524,-0.33332 l -5.03e-4,-5.1e-4 c 0.40066,-0.20642 0.85343,-0.31161 1.36064,-0.31161 0.79727,0 1.47832,0.28201 2.04276,0.84646 l 0.867643,-0.84646 c -0.34572,-0.39511 -0.77254,-0.69508 -1.28054,-0.89969 -0.508,-0.20461 -1.07255,-0.30696 -1.69344,-0.30696 -0.762,0 -1.45012,0.16603 -2.06395,0.49765 -0.036,0.0192 -0.0699,0.0403 -0.10491,0.0605 l -0.005,-0.005 c -1.933399,1.14674 -2.930599,2.90817 -4.408509,4.98212 -0.53622,0.58562 -1.19604,0.8785 -1.97921,0.8785 -0.507999,0 -0.96312,-0.10942 -1.36529,-0.32814 -0.40217,-0.22578 -0.71628,-0.5361 -0.94206,-0.93121 -0.22578,-0.39511 -0.33848,-0.84316 -0.33848,-1.3441 0,-0.50095 0.1127,-0.949 0.33848,-1.34411 0.14102,-0.24679 0.320841,-0.45503 0.53071,-0.63304 0.14237,-0.1038 0.287361,-0.20541 0.43925,-0.30127 0.395471,-0.21575 0.84079,-0.32504 1.33739,-0.32504 0.78317,0 1.44299,0.28909 1.97921,0.86764 l 0.88883,-0.83612 c -0.34572,-0.40217 -0.76926,-0.70869 -1.2702,-0.92036 -0.50095,-0.21166 -1.05462,-0.31781 -1.6614,-0.31781 -0.74789,0 -1.42514,0.16603 -2.03192,0.49765 -0.0334,0.0181 -0.065,0.038 -0.0977,0.0568 l -0.002,-0.002 c -0.0176,0.0104 -0.0337,0.022 -0.0512,0.0326 -0.0496,0.0297 -0.098,0.0604 -0.14573,0.092 -1.804227,1.14776 -2.785417,2.85619 -4.211627,4.85758 -0.53622,0.58562 -1.19604,0.8785 -1.9792,0.8785 -0.508,0 -0.96313,-0.10942 -1.3653,-0.32814 -0.40216,-0.22578 -0.71628,-0.5361 -0.94206,-0.93121 -0.22577,-0.39511 -0.33848,-0.84316 -0.33848,-1.3441 0,-0.50095 0.11271,-0.949 0.33848,-1.34411 0.22578,-0.39511 0.5399,-0.70215 0.94206,-0.92087 0.40217,-0.22578 0.8573,-0.33848 1.3653,-0.33848 0.78316,0 1.44298,0.28909 1.9792,0.86764 l 0.88884,-0.83612 c -0.34572,-0.40217 -0.76926,-0.70869 -1.27021,-0.92036 -0.50094,-0.21166 -1.05462,-0.31781 -1.6614,-0.31781 z"
       id="path820"
       inkscape:connector-curvature="0" />
  </g>
</svg>
