<?xml version="1.0" encoding="UTF-8" standalone="no"?>
<svg
   xmlns:dc="http://purl.org/dc/elements/1.1/"
   xmlns:cc="http://creativecommons.org/ns#"
   xmlns:rdf="http://www.w3.org/1999/02/22-rdf-syntax-ns#"
   xmlns:svg="http://www.w3.org/2000/svg"
   xmlns="http://www.w3.org/2000/svg"
   xmlns:sodipodi="http://sodipodi.sourceforge.net/DTD/sodipodi-0.dtd"
   xmlns:inkscape="http://www.inkscape.org/namespaces/inkscape"
   sodipodi:docname="logo.svg"
   inkscape:version="0.92.4 (5da689c313, 2019-01-14)"
   id="svg8"
   version="1.1"
   viewBox="0 0 94.714289 94.714209"
   height="357.97495"
   width="357.97528">
  <defs
     id="defs2" />
  <sodipodi:namedview
     inkscape:document-rotation="0"
     fit-margin-bottom="10"
     fit-margin-right="10"
     fit-margin-top="10"
     fit-margin-left="10"
     inkscape:window-maximized="1"
     inkscape:window-y="0"
     inkscape:window-x="0"
     inkscape:window-height="1044"
     inkscape:window-width="1920"
     inkscape:showpageshadow="false"
     borderlayer="false"
     showborder="true"
     inkscape:pagecheckerboard="false"
     scale-x="0.26458"
     units="px"
     showgrid="false"
     inkscape:current-layer="layer1"
     inkscape:document-units="px"
     inkscape:cy="192.99995"
     inkscape:cx="27.809609"
     inkscape:zoom="1.4142136"
     inkscape:pageshadow="2"
     inkscape:pageopacity="0"
     borderopacity="1.0"
     bordercolor="#666666"
     pagecolor="#1e1f2a"
     id="base" />
  <metadata
     id="metadata5">
    <rdf:RDF>
      <cc:Work
         rdf:about="">
        <dc:format>image/svg+xml</dc:format>
        <dc:type
           rdf:resource="http://purl.org/dc/dcmitype/StillImage" />
        <dc:title></dc:title>
      </cc:Work>
    </rdf:RDF>
  </metadata>
  <g
     transform="translate(-32.017895,-170.26788)"
     id="layer1"
     inkscape:groupmode="layer"
     inkscape:label="Layer 1">
    <path
       d="m -171.64667,224.09772 h 10.41424 v 9.3561 h -10.41424 z"
       transform="matrix(0.8434466,-0.53721303,0.8434466,0.53721303,0,0)"
       style="fill:none;fill-opacity:1;stroke:#ffffff;stroke-width:1.66761994;stroke-linecap:round;stroke-linejoin:miter;stroke-miterlimit:4;stroke-dasharray:none;stroke-opacity:1;paint-order:normal"
       id="rect1622"
       inkscape:connector-curvature="0" />
    <path
       d="m -161.23242,224.09772 h 10.41423 v 9.3561 h -10.41423 z"
       transform="matrix(0.8434466,-0.53721303,0.8434466,0.53721303,0,0)"
       style="fill:none;fill-opacity:1;stroke:#ffffff;stroke-width:1.66761994;stroke-linecap:round;stroke-linejoin:miter;stroke-miterlimit:4;stroke-dasharray:none;stroke-opacity:1;paint-order:normal"
       id="rect1624"
       inkscape:connector-curvature="0" />
    <path
       d="m -150.81819,224.09772 h 10.41423 v 9.3561 h -10.41423 z"
       transform="matrix(0.8434466,-0.53721303,0.8434466,0.53721303,0,0)"
       style="fill:none;fill-opacity:1;stroke:#ffffff;stroke-width:1.66761994;stroke-linecap:round;stroke-linejoin:miter;stroke-miterlimit:4;stroke-dasharray:none;stroke-opacity:1;paint-order:normal"
       id="rect1626"
       inkscape:connector-curvature="0" />
    <path
       d="m -140.40396,224.09772 h 10.41423 v 9.3561 h -10.41423 z"
       transform="matrix(0.8434466,-0.53721303,0.8434466,0.53721303,0,0)"
       style="fill:none;fill-opacity:1;stroke:#ffffff;stroke-width:1.66761994;stroke-linecap:round;stroke-linejoin:miter;stroke-miterlimit:4;stroke-dasharray:none;stroke-opacity:1;paint-order:normal"
       id="rect1628"
       inkscape:connector-curvature="0" />
    <path
       id="path1632"
       d="m 114.51046,222.65146 7.89137,-5.02622 -8.78384,-5.59466 -8.78385,-5.59466 -8.78385,-5.59466 -8.78385,-5.59466 -7.89137,5.02621 8.78384,5.59467 8.78385,5.59466 8.78385,5.59466 z"
       style="fill:none;fill-opacity:1;stroke:#ffffff;stroke-width:1.58749998;stroke-linecap:round;stroke-linejoin:miter;stroke-miterlimit:4;stroke-dasharray:none;stroke-opacity:1;paint-order:normal"
       inkscape:connector-curvature="0" />
    <path
       inkscape:connector-curvature="0"
       id="path1634"
       d="m 119.12441,219.71272 c -2.68553,-2.18593 -5.51089,-4.40757 -8.59596,-6.37253 -0.71525,-0.45556 -1.28294,-1.03812 -1.87889,-1.55573 -0.0797,-0.0692 -0.92063,-0.64924 -0.79854,-0.68812 0.57095,-0.18183 2.14062,1.18391 2.48954,1.40615 2.05876,1.31127 4.52401,2.72501 6.38826,4.30819 1.04025,0.88342 1.51155,2.05743 2.39559,2.90204 z"
       style="fill:#ffffff;fill-opacity:1;stroke:none;stroke-width:1.58749998;stroke-linecap:butt;stroke-linejoin:miter;stroke-miterlimit:4;stroke-dasharray:none;stroke-opacity:1" />
    <path
       inkscape:connector-curvature="0"
       id="path1636"
       d="m 109.07018,216.25115 c -1.87063,-1.42147 -3.48213,-2.99572 -5.54276,-4.30819 -1.16876,-0.74441 -2.28839,-1.54492 -3.52293,-2.24385 -1.01418,-0.57422 -5.35859,-1.8022 -5.68367,-2.42335 -0.14493,-0.27693 2.50884,0.35723 2.86532,0.5086 1.20408,0.51127 1.98859,1.38626 3.00624,2.03442 1.42383,0.90688 3.31495,1.68087 5.07302,2.39344 1.10749,0.44888 1.80014,1.32606 2.72441,1.91475 0.73738,0.46966 2.15606,1.66741 1.08037,2.12418 z"
       style="fill:#ffffff;fill-opacity:1;stroke:none;stroke-width:1.58749998;stroke-linecap:butt;stroke-linejoin:miter;stroke-miterlimit:4;stroke-dasharray:none;stroke-opacity:1" />
    <path
       inkscape:connector-curvature="0"
       id="path1638"
       d="m 115.93029,221.86682 c 0.97988,-0.71815 -2.48955,-2.28781 -2.48954,-2.60287 0,-0.0856 1.16179,0.28841 1.26826,0.3291 0.3833,0.14648 2.3956,0.3369 2.39559,0.74795 10e-6,0.53761 -0.30844,1.01853 -1.08037,1.34631"
       style="fill:#ffffff;fill-opacity:1;stroke:none;stroke-width:1.58749998;stroke-linecap:butt;stroke-linejoin:miter;stroke-miterlimit:4;stroke-dasharray:none;stroke-opacity:1" />
    <path
       style="fill:#ffffff;fill-opacity:1;stroke:none;stroke-width:1.58749998;stroke-linecap:butt;stroke-linejoin:miter;stroke-miterlimit:4;stroke-dasharray:none;stroke-opacity:1"
       d="m 92.3266,207.33671 c -2.68552,-2.18593 -5.51088,-4.40757 -8.59595,-6.37253 -0.71525,-0.45556 -1.28294,-1.03812 -1.8789,-1.55574 -0.0797,-0.0692 -0.92062,-0.64924 -0.79853,-0.68811 0.57095,-0.18183 2.14062,1.18391 2.48954,1.40615 2.05875,1.31127 4.52401,2.725 6.38825,4.30818 1.04026,0.88343 1.51155,2.05744 2.39559,2.90205 z"
       id="path1640"
       inkscape:connector-curvature="0" />
    <path
       inkscape:connector-curvature="0"
       id="path1643"
       d="m 96.19508,204.79819 c -1.90387,-1.07315 -3.71928,-2.21588 -5.52196,-3.36405 -1.55748,-0.992 -3.04223,-2.06438 -4.69725,-2.9918 -0.65017,-0.36436 -1.27779,-0.73742 -1.89193,-1.12858 -0.094,-0.0599 -0.37578,-0.23935 -0.28184,-0.17951 0.80743,0.51427 2.81359,1.89499 3.64308,2.16733 0.7495,0.24609 1.62124,0.36428 2.29166,0.69447 0.77185,0.3801 1.28126,0.95894 2.12679,1.27817 2.18131,0.82342 3.09685,2.90534 5.97091,3.49697 0.83872,0.17264 1.66614,0.98477 2.26771,1.36792 0.34446,0.2194 1.47387,0.37765 1.03339,0.6582 -0.0723,0.046 -3.28272,-1.37325 -4.94062,-1.99908 z"
       style="fill:#ffffff;fill-opacity:1;stroke:none;stroke-width:1.58749998;stroke-linecap:butt;stroke-linejoin:miter;stroke-miterlimit:4;stroke-dasharray:none;stroke-opacity:1" />
    <path
       d="m -181.00276,265.75464 h 10.41423 v 9.3561 h -10.41423 z"
       transform="matrix(0.8434466,-0.53721303,0.8434466,0.53721303,0,0)"
       style="fill:none;fill-opacity:1;stroke:#ffffff;stroke-width:1.66761994;stroke-linecap:round;stroke-linejoin:miter;stroke-miterlimit:4;stroke-dasharray:none;stroke-opacity:1;paint-order:normal"
       id="rect1647"
       inkscape:connector-curvature="0" />
    <path
       d="m -170.58853,265.75464 h 10.41423 v 9.3561 h -10.41423 z"
       transform="matrix(0.8434466,-0.53721303,0.8434466,0.53721303,0,0)"
       style="fill:none;fill-opacity:1;stroke:#ffffff;stroke-width:1.66761994;stroke-linecap:round;stroke-linejoin:miter;stroke-miterlimit:4;stroke-dasharray:none;stroke-opacity:1;paint-order:normal"
       id="rect1649"
       inkscape:connector-curvature="0" />
    <path
       d="m -160.1743,265.75464 h 10.41423 v 9.3561 h -10.41423 z"
       transform="matrix(0.8434466,-0.53721303,0.8434466,0.53721303,0,0)"
       style="fill:none;fill-opacity:1;stroke:#ffffff;stroke-width:1.66761994;stroke-linecap:round;stroke-linejoin:miter;stroke-miterlimit:4;stroke-dasharray:none;stroke-opacity:1;paint-order:normal"
       id="rect1651"
       inkscape:connector-curvature="0" />
    <path
       d="m -149.76007,265.75464 h 10.41423 v 9.3561 h -10.41423 z"
       transform="matrix(0.8434466,-0.53721303,0.8434466,0.53721303,0,0)"
       style="fill:none;fill-opacity:1;stroke:#ffffff;stroke-width:1.66761994;stroke-linecap:round;stroke-linejoin:miter;stroke-miterlimit:4;stroke-dasharray:none;stroke-opacity:1;paint-order:normal"
       id="rect1653"
       inkscape:connector-curvature="0" />
    <path
       inkscape:connector-curvature="0"
       style="fill:none;fill-opacity:1;stroke:#ffffff;stroke-width:1.58749998;stroke-linecap:round;stroke-linejoin:miter;stroke-miterlimit:4;stroke-dasharray:none;stroke-opacity:1;paint-order:normal"
       d="m 71.48369,240.0039 7.89137,-5.02622 -8.78384,-5.59466 -8.78385,-5.59466 -8.78385,-5.59466 -8.78385,-5.59467 -7.89138,5.02622 8.78385,5.59467 8.78385,5.59466 8.78385,5.59466 z"
       id="path1657" />
    <path
       style="fill:#ffffff;fill-opacity:1;stroke:none;stroke-width:1.58749998;stroke-linecap:butt;stroke-linejoin:miter;stroke-miterlimit:4;stroke-dasharray:none;stroke-opacity:1"
       d="m 76.09764,237.06516 c -2.68553,-2.18593 -5.51089,-4.40757 -8.59596,-6.37253 -0.71525,-0.45556 -1.28294,-1.03812 -1.8789,-1.55574 -0.0797,-0.0692 -0.92062,-0.64924 -0.79854,-0.68811 0.57096,-0.18183 2.14063,1.18391 2.48955,1.40615 2.05875,1.31127 4.52401,2.725 6.38825,4.30818 1.04026,0.88343 1.51155,2.05744 2.3956,2.90205 z"
       id="path1659"
       inkscape:connector-curvature="0" />
    <path
       style="fill:#ffffff;fill-opacity:1;stroke:none;stroke-width:1.58749998;stroke-linecap:butt;stroke-linejoin:miter;stroke-miterlimit:4;stroke-dasharray:none;stroke-opacity:1"
       d="m 66.0434,233.60358 c -1.87062,-1.42146 -3.48212,-2.99571 -5.54275,-4.30818 -1.16876,-0.74442 -2.28839,-1.54492 -3.52293,-2.24385 -1.01418,-0.57422 -5.35859,-1.8022 -5.68367,-2.42336 -0.14493,-0.27692 2.50884,0.35724 2.86532,0.50861 1.20408,0.51127 1.98859,1.38626 3.00623,2.03442 1.42384,0.90688 3.31496,1.68086 5.07303,2.39344 1.10749,0.44888 1.80013,1.32605 2.72441,1.91475 0.73738,0.46966 2.15606,1.66741 1.08036,2.12417 z"
       id="path1661"
       inkscape:connector-curvature="0" />
    <path
       style="fill:#ffffff;fill-opacity:1;stroke:none;stroke-width:1.58749998;stroke-linecap:butt;stroke-linejoin:miter;stroke-miterlimit:4;stroke-dasharray:none;stroke-opacity:1"
       d="m 72.90352,239.21925 c 0.97988,-0.71814 -2.48955,-2.2878 -2.48954,-2.60286 0,-0.0856 1.16179,0.28841 1.26826,0.32909 0.3833,0.14649 2.39559,0.33691 2.39559,0.74796 0,0.53761 -0.30844,1.01853 -1.08037,1.3463"
       id="path1663"
       inkscape:connector-curvature="0" />
    <path
       inkscape:connector-curvature="0"
       id="path1665"
       d="m 49.29983,224.68915 c -2.68552,-2.18593 -5.51088,-4.40757 -8.59595,-6.37253 -0.71525,-0.45556 -1.28294,-1.03812 -1.8789,-1.55574 -0.0797,-0.0692 -0.92063,-0.64924 -0.79854,-0.68811 0.57096,-0.18183 2.14063,1.18391 2.48954,1.40614 2.05876,1.31128 4.52402,2.72501 6.38826,4.30819 1.04026,0.88343 1.51155,2.05744 2.39559,2.90205 z"
       style="fill:#ffffff;fill-opacity:1;stroke:none;stroke-width:1.58749998;stroke-linecap:butt;stroke-linejoin:miter;stroke-miterlimit:4;stroke-dasharray:none;stroke-opacity:1" />
    <path
       style="fill:#ffffff;fill-opacity:1;stroke:none;stroke-width:1.58749998;stroke-linecap:butt;stroke-linejoin:miter;stroke-miterlimit:4;stroke-dasharray:none;stroke-opacity:1"
       d="m 53.16831,222.15063 c -1.90387,-1.07316 -3.71929,-2.21588 -5.52196,-3.36405 -1.55748,-0.992 -3.04223,-2.06438 -4.69725,-2.9918 -0.65018,-0.36436 -1.27779,-0.73742 -1.89194,-1.12859 -0.0939,-0.0598 -0.37577,-0.23934 -0.28183,-0.1795 0.80742,0.51426 2.81359,1.89499 3.64308,2.16733 0.7495,0.24609 1.62124,0.36428 2.29166,0.69447 0.77185,0.3801 1.28126,0.95893 2.12679,1.27817 2.18131,0.82342 3.09685,2.90534 5.97091,3.49697 0.83872,0.17264 1.66614,0.98477 2.2677,1.36792 0.34447,0.2194 1.47388,0.37764 1.0334,0.6582 -0.0723,0.046 -3.28273,-1.37325 -4.94062,-1.99908 z"
       id="path1667"
       inkscape:connector-curvature="0" />
    <path
       style="font-style:normal;font-variant:normal;font-weight:600;font-stretch:normal;font-size:40px;line-height:1.25;font-family:Montserrat;-inkscape-font-specification:'Montserrat Semi-Bold';letter-spacing:0px;word-spacing:0px;fill:#ffffff;fill-opacity:1;stroke:none;stroke-width:0.32197499"
       d="m 69.51048,212.98868 c -0.91012,0 -1.73427,0.20204 -2.47267,0.60559 -0.72981,0.39495 -1.30487,0.94418 -1.72559,1.64824 -0.42071,0.70405 -0.63137,1.49839 -0.63137,2.38274 0,0.88436 0.20604,1.67869 0.61817,2.38275 0.42071,0.70404 0.99577,1.25789 1.72558,1.66144 0.7384,0.39495 1.56318,0.59238 2.47331,0.59238 0.73838,0 1.41216,-0.12916 2.02177,-0.38675 0.61819,-0.25758 1.1376,-0.63059 1.55832,-1.12 0.73135,-0.98065 1.38774,-1.9112 2.05951,-2.76949 0.0489,0.74107 0.25025,1.4154 0.60558,2.02242 0.42073,0.70404 0.99578,1.25789 1.72559,1.66144 0.7384,0.39495 1.56318,0.59238 2.4733,0.59238 0.7384,0 1.41217,-0.12916 2.02179,-0.38675 0.61819,-0.25758 1.13759,-0.63059 1.5583,-1.12 0.73167,-0.98106 1.38809,-1.91216 2.06014,-2.77074 0.0499,0.74156 0.25524,1.41629 0.61817,2.02367 0.42071,0.70404 0.99977,1.25789 1.73816,1.66144 0.7384,0.39495 1.56718,0.59238 2.48587,0.59238 0.65255,0 1.28788,-0.0987 1.90607,-0.29619 0.61819,-0.19747 1.15944,-0.48101 1.62309,-0.85021 v -3.5933 h -1.58409 v 2.80785 c -0.53234,0.3091 -1.15108,0.46346 -1.85514,0.46346 -0.62678,0 -1.1886,-0.13714 -1.68659,-0.4119 -0.48941,-0.27474 -0.87628,-0.65238 -1.15961,-1.1332 -0.27476,-0.48082 -0.41191,-1.02207 -0.41191,-1.62308 0,-0.61819 0.13715,-1.16742 0.41191,-1.64823 0.16715,-0.28367 0.37474,-0.52552 0.61376,-0.73451 0.1908,-0.14031 0.38553,-0.27713 0.5905,-0.40562 l -6.3e-4,-6.2e-4 c 0.48756,-0.2512 1.03856,-0.3792 1.65578,-0.3792 0.97022,0 1.799,0.34318 2.48588,1.03007 l 1.05585,-1.03007 c -0.42071,-0.48082 -0.94011,-0.84586 -1.55831,-1.09485 -0.61819,-0.24899 -1.3052,-0.37354 -2.06077,-0.37354 -0.92729,0 -1.76467,0.20204 -2.51166,0.60559 -0.0438,0.0234 -0.0851,0.049 -0.12766,0.0736 l -0.006,-0.006 c -2.35278,1.39549 -3.56629,3.539 -5.36478,6.06282 -0.65255,0.71265 -1.45549,1.06906 -2.40853,1.06906 -0.6182,0 -1.17205,-0.13316 -1.66144,-0.39932 -0.48941,-0.27476 -0.87167,-0.65239 -1.14641,-1.1332 -0.27476,-0.48082 -0.41192,-1.02606 -0.41192,-1.63566 0,-0.60961 0.13716,-1.15485 0.41192,-1.63567 0.17161,-0.30032 0.39043,-0.55373 0.64583,-0.77035 0.17325,-0.12632 0.34969,-0.24997 0.53453,-0.36662 0.48125,-0.26255 1.02317,-0.39555 1.62749,-0.39555 0.95304,0 1.75598,0.3518 2.40853,1.05585 l 1.08163,-1.01749 c -0.42071,-0.48941 -0.93613,-0.86242 -1.54574,-1.12 -0.6096,-0.25757 -1.28338,-0.38675 -2.02177,-0.38675 -0.91012,0 -1.73427,0.20205 -2.47267,0.6056 -0.0406,0.022 -0.0791,0.0462 -0.1189,0.0691 l -0.002,-0.002 c -0.0214,0.0127 -0.041,0.0268 -0.0623,0.0397 -0.0604,0.0361 -0.11925,0.0735 -0.17734,0.11195 -2.19559,1.39673 -3.38962,3.47574 -5.12519,5.91126 -0.65254,0.71265 -1.45548,1.06906 -2.40853,1.06906 -0.61819,0 -1.17204,-0.13315 -1.66144,-0.39931 -0.4894,-0.27476 -0.87166,-0.65239 -1.14641,-1.13321 -0.27475,-0.48081 -0.4119,-1.02605 -0.4119,-1.63565 0,-0.60962 0.13715,-1.15485 0.4119,-1.63567 0.27475,-0.48082 0.65701,-0.85446 1.14641,-1.12062 0.4894,-0.27476 1.04325,-0.4119 1.66144,-0.4119 0.95305,0 1.75599,0.3518 2.40853,1.05584 l 1.08164,-1.01748 c -0.42072,-0.48941 -0.93614,-0.86242 -1.54574,-1.12 -0.60961,-0.25758 -1.28338,-0.38675 -2.02178,-0.38675 z"
       id="path1671"
       inkscape:connector-curvature="0" />
    <path
       inkscape:connector-curvature="0"
       id="path1785"
       d="m 79.37501,186.65659 a 30.968448,30.968448 0 0 0 -29.76563,22.52162 l -5.36969,3.42046 -7.89151,5.02657 8.78396,5.59449 4.45192,2.83549 a 30.968448,30.968448 0 0 0 29.79095,22.53816 30.968448,30.968448 0 0 0 29.76614,-22.52214 l 5.36918,-3.41995 7.89151,-5.02605 -8.78396,-5.59501 -4.4514,-2.83497 A 30.968448,30.968448 0 0 0 79.37501,186.65659 Z"
       style="fill:none;fill-opacity:1;stroke:#ffffff;stroke-width:1.58749998;stroke-linecap:round;stroke-linejoin:miter;stroke-miterlimit:4;stroke-dasharray:none;stroke-opacity:1;paint-order:normal" />
    <path
       d="M 123.28292,217.62498 A 43.907917,43.907917 0 0 1 79.375,261.5329 43.907917,43.907917 0 0 1 35.467083,217.62498 43.907917,43.907917 0 0 1 79.375,173.71707 a 43.907917,43.907917 0 0 1 43.90792,43.90791"
       style="fill:none;fill-opacity:1;stroke:#ffffff;stroke-width:1.60670996;stroke-linecap:round;stroke-linejoin:round;stroke-miterlimit:4;stroke-dasharray:none;stroke-opacity:1;paint-order:normal"
       id="circle1789"
       inkscape:connector-curvature="0" />
    <g
       transform="translate(-362.78471,15.176307)"
       id="g2235"
       style="stroke:#ffffff;stroke-opacity:1">
      <path
         d="m 407.01829,220.40932 q -0.29876,-0.60316 -0.27941,-1.22217 0.0279,-0.61614 0.35634,-1.12608 0.33131,-0.50425 0.91739,-0.79456 0.58609,-0.29032 1.1908,-0.24262 0.6047,0.0477 1.10603,0.40171 0.50984,0.35688 0.8086,0.96004 0.2424,0.48936 0.27181,0.97792 0.0294,0.48856 -0.15681,0.92803 l -0.68629,-0.25531 q 0.25239,-0.66357 -0.0605,-1.29518 -0.20293,-0.40969 -0.54568,-0.64384 -0.33705,-0.23697 -0.7459,-0.26121 -0.40884,-0.0242 -0.81284,0.17587 -0.40401,0.20012 -0.63246,0.54005 -0.22846,0.33992 -0.24988,0.75446 -0.0157,0.41171 0.1872,0.82141 0.31286,0.63161 0.99935,0.83012 l -0.21845,0.70346 q -0.46245,-0.11816 -0.83609,-0.4433 -0.37083,-0.31944 -0.61323,-0.8088 z"
         style="font-style:normal;font-variant:normal;font-weight:600;font-stretch:normal;font-size:6.3499999px;line-height:1.25;font-family:Montserrat;-inkscape-font-specification:'Montserrat Semi-Bold';letter-spacing:3.60363007px;word-spacing:0px;fill:#ffffff;fill-opacity:1;stroke:#ffffff;stroke-width:0.26458299;stroke-opacity:1"
         id="path2211"
         inkscape:connector-curvature="0" />
      <path
         d="m 411.43042,227.24571 q -0.42541,-0.52979 -0.53957,-1.13849 -0.10921,-0.61268 0.10199,-1.18131 0.21614,-0.57261 0.72118,-0.97814 0.50503,-0.40553 1.10585,-0.48893 0.60578,-0.0874 1.17546,0.15555 0.57463,0.23895 1.00004,0.76874 0.42541,0.52979 0.53461,1.14247 0.11416,0.6087 -0.097,1.17733 -0.21119,0.56863 -0.72118,0.97813 -0.50998,0.40951 -1.11081,0.49291 -0.60082,0.0834 -1.17545,-0.15555 -0.56968,-0.24292 -0.99509,-0.77271 z m 0.56445,-0.45325 q 0.27831,0.3466 0.65444,0.50062 0.38109,0.15005 0.78559,0.0858 0.40945,-0.0682 0.75604,-0.34649 0.34659,-0.2783 0.49664,-0.65939 0.155,-0.38506 0.0858,-0.78559 -0.0642,-0.4045 -0.34251,-0.75109 -0.27831,-0.34659 -0.6594,-0.49664 -0.37613,-0.15402 -0.78558,-0.0858 -0.4045,0.0642 -0.75109,0.3425 -0.3466,0.27831 -0.50159,0.66337 -0.15005,0.38109 -0.0858,0.78559 0.0692,0.40052 0.34746,0.74711 z"
         style="font-style:normal;font-variant:normal;font-weight:600;font-stretch:normal;font-size:6.3499999px;line-height:1.25;font-family:Montserrat;-inkscape-font-specification:'Montserrat Semi-Bold';letter-spacing:3.60363007px;word-spacing:0px;fill:#ffffff;fill-opacity:1;stroke:#ffffff;stroke-width:0.26458299;stroke-opacity:1"
         id="path2213"
         inkscape:connector-curvature="0" />
      <path
         d="m 422.05332,231.15867 -2.75505,3.48823 -0.5332,-0.42113 -0.0579,-3.88124 -1.86557,2.36202 -0.64283,-0.50771 2.75506,-3.48823 0.5332,0.42113 0.0579,3.88124 1.86556,-2.36202 z"
         style="font-style:normal;font-variant:normal;font-weight:600;font-stretch:normal;font-size:6.3499999px;line-height:1.25;font-family:Montserrat;-inkscape-font-specification:'Montserrat Semi-Bold';letter-spacing:3.60363007px;word-spacing:0px;fill:#ffffff;fill-opacity:1;stroke:#ffffff;stroke-width:0.26458299;stroke-opacity:1"
         id="path2215"
         inkscape:connector-curvature="0" />
      <path
         d="m 424.59361,237.83905 q -0.46033,-0.22946 -0.82709,-0.57546 -0.36108,-0.34318 -0.50349,-0.68378 l 0.54185,-0.44652 q 0.14806,0.31504 0.43809,0.6157 0.29855,0.29781 0.65658,0.47628 0.44329,0.22096 0.73006,0.18653 0.29247,-0.0316 0.40861,-0.26461 0.085,-0.17049 0.0138,-0.34079 -0.0627,-0.17315 -0.21907,-0.32915 -0.15638,-0.156 -0.44066,-0.39703 -0.40083,-0.3346 -0.63116,-0.58422 -0.22465,-0.24679 -0.31593,-0.57609 -0.0828,-0.33216 0.1127,-0.72429 0.1643,-0.32962 0.47362,-0.50891 0.31784,-0.18214 0.75519,-0.1628 0.44304,0.0222 0.96588,0.28279 0.36372,0.1813 0.67075,0.44786 0.30703,0.26656 0.47778,0.56453 l -0.51912,0.45785 q -0.18493,-0.28375 -0.42943,-0.50496 -0.2445,-0.2212 -0.5116,-0.35434 -0.4376,-0.21813 -0.72721,-0.17801 -0.28393,0.0429 -0.40574,0.28732 -0.085,0.17049 -0.0195,0.33796 0.0712,0.1703 0.22758,0.3263 0.15639,0.15599 0.44066,0.39703 0.3923,0.32325 0.6198,0.57855 0.23033,0.24962 0.31592,0.5761 0.0913,0.3293 -0.10135,0.71575 -0.1643,0.32962 -0.4793,0.50608 -0.30932,0.17929 -0.75235,0.15712 -0.44304,-0.0222 -0.96589,-0.28279 z"
         style="font-style:normal;font-variant:normal;font-weight:600;font-stretch:normal;font-size:6.3499999px;line-height:1.25;font-family:Montserrat;-inkscape-font-specification:'Montserrat Semi-Bold';letter-spacing:3.60363007px;word-spacing:0px;fill:#ffffff;fill-opacity:1;stroke:#ffffff;stroke-width:0.26458299;stroke-opacity:1"
         id="path2217"
         inkscape:connector-curvature="0" />
      <path
         d="m 432.19889,236.74773 -1.41831,-0.39841 0.1889,-0.67247 3.63135,1.02005 -0.18889,0.67247 -1.41831,-0.3984 -1.01318,3.6069 -0.79474,-0.22324 z"
         style="font-style:normal;font-variant:normal;font-weight:600;font-stretch:normal;font-size:6.3499999px;line-height:1.25;font-family:Montserrat;-inkscape-font-specification:'Montserrat Semi-Bold';letter-spacing:3.60363007px;word-spacing:0px;fill:#ffffff;fill-opacity:1;stroke:#ffffff;stroke-width:0.26458299;stroke-opacity:1"
         id="path2219"
         inkscape:connector-curvature="0" />
      <path
         d="m 440.46517,241.91514 -0.80736,-1.36648 q -0.0575,0.002 -0.17144,-0.007 l -1.00045,-0.0756 -0.0976,1.29172 -0.82316,-0.0622 0.33499,-4.43236 1.8236,0.13782 q 0.5762,0.0435 0.98609,0.26557 0.41621,0.2225 0.61736,0.59432 0.20115,0.37181 0.16431,0.85937 -0.0378,0.50023 -0.31203,0.84248 -0.26789,0.34274 -0.73719,0.48558 l 0.90937,1.53339 z M 440.662,239.058 q 0.0321,-0.42424 -0.22931,-0.67324 -0.26138,-0.24901 -0.7996,-0.28969 l -0.96245,-0.0727 -0.13352,1.76662 0.96246,0.0727 q 0.53821,0.0407 0.83405,-0.16622 0.29631,-0.21323 0.32837,-0.63747 z"
         style="font-style:normal;font-variant:normal;font-weight:600;font-stretch:normal;font-size:6.3499999px;line-height:1.25;font-family:Montserrat;-inkscape-font-specification:'Montserrat Semi-Bold';letter-spacing:3.60363007px;word-spacing:0px;fill:#ffffff;fill-opacity:1;stroke:#ffffff;stroke-width:0.26458299;stroke-opacity:1"
         id="path2221"
         inkscape:connector-curvature="0" />
      <path
         d="m 447.70206,241.61903 q -0.91179,0.12815 -1.49273,-0.3096 -0.58181,-0.44404 -0.71616,-1.39985 l -0.34911,-2.48383 0.81747,-0.1149 0.34469,2.45239 q 0.18207,1.29537 1.30137,1.13805 1.11301,-0.15644 0.93094,-1.4518 l -0.34469,-2.4524 0.80488,-0.11313 0.34912,2.48384 q 0.13434,0.9558 -0.30253,1.54302 -0.43147,0.58005 -1.34325,0.70821 z"
         style="font-style:normal;font-variant:normal;font-weight:600;font-stretch:normal;font-size:6.3499999px;line-height:1.25;font-family:Montserrat;-inkscape-font-specification:'Montserrat Semi-Bold';letter-spacing:3.60363007px;word-spacing:0px;fill:#ffffff;fill-opacity:1;stroke:#ffffff;stroke-width:0.26458299;stroke-opacity:1"
         id="path2223"
         inkscape:connector-curvature="0" />
      <path
         d="m 456.18358,239.44422 q -0.6317,0.2324 -1.24507,0.14682 -0.60961,-0.0937 -1.0814,-0.47498 -0.46584,-0.38344 -0.69167,-0.99726 -0.22583,-0.61383 -0.1136,-1.20994 0.11223,-0.59611 0.51794,-1.05661 0.40946,-0.46865 1.04117,-0.70105 0.51252,-0.18856 1.00141,-0.16544 0.4889,0.0231 0.90589,0.25538 l -0.32739,0.65497 q -0.63271,-0.32205 -1.29421,-0.0787 -0.42908,0.15786 -0.69861,0.47354 -0.27173,0.30971 -0.33965,0.71361 -0.0679,0.40389 0.0877,0.82701 0.15567,0.42312 0.46915,0.6867 0.31348,0.26357 0.72334,0.3293 0.40765,0.0598 0.83674,-0.0981 0.6615,-0.24337 0.93244,-0.90463 l 0.676,0.29259 q -0.16704,0.44712 -0.53035,0.78376 -0.35735,0.33446 -0.86987,0.52301 z"
         style="font-style:normal;font-variant:normal;font-weight:600;font-stretch:normal;font-size:6.3499999px;line-height:1.25;font-family:Montserrat;-inkscape-font-specification:'Montserrat Semi-Bold';letter-spacing:3.60363007px;word-spacing:0px;fill:#ffffff;fill-opacity:1;stroke:#ffffff;stroke-width:0.26458299;stroke-opacity:1"
         id="path2225"
         inkscape:connector-curvature="0" />
      <path
         d="m 460.51681,233.14405 -1.25728,0.76783 -0.36406,-0.59613 3.21908,-1.9659 0.36406,0.59612 -1.25729,0.76783 1.95267,3.1974 -0.70451,0.43025 z"
         style="font-style:normal;font-variant:normal;font-weight:600;font-stretch:normal;font-size:6.3499999px;line-height:1.25;font-family:Montserrat;-inkscape-font-specification:'Montserrat Semi-Bold';letter-spacing:3.60363007px;word-spacing:0px;fill:#ffffff;fill-opacity:1;stroke:#ffffff;stroke-width:0.26458299;stroke-opacity:1"
         id="path2227"
         inkscape:connector-curvature="0" />
      <path
         d="m 464.8555,229.19448 0.62352,-0.541 2.91304,3.35742 -0.62352,0.54099 z"
         style="font-style:normal;font-variant:normal;font-weight:600;font-stretch:normal;font-size:6.3499999px;line-height:1.25;font-family:Montserrat;-inkscape-font-specification:'Montserrat Semi-Bold';letter-spacing:3.60363007px;word-spacing:0px;fill:#ffffff;fill-opacity:1;stroke:#ffffff;stroke-width:0.26458299;stroke-opacity:1"
         id="path2229"
         inkscape:connector-curvature="0" />
      <path
         d="m 473.16082,227.06094 q -0.42211,0.53243 -0.99026,0.7789 -0.57313,0.24252 -1.17446,0.16287 -0.60631,-0.0836 -1.11386,-0.48599 -0.50755,-0.40238 -0.72228,-0.96968 -0.2197,-0.57125 -0.10934,-1.18065 0.10539,-0.61334 0.5275,-1.14577 0.4221,-0.53243 0.99523,-0.77495 0.56816,-0.24647 1.16949,-0.16681 0.60133,0.0797 1.11385,0.48598 0.51253,0.40632 0.72726,0.97363 0.21473,0.5673 0.10934,1.18065 -0.11037,0.60939 -0.53247,1.14182 z m -0.56726,-0.44971 q 0.27614,-0.34832 0.3428,-0.74927 0.0617,-0.40489 -0.0907,-0.78504 -0.15739,-0.38409 -0.50571,-0.66023 -0.34832,-0.27614 -0.75321,-0.33782 -0.40986,-0.0656 -0.78503,0.0907 -0.38015,0.15242 -0.65629,0.50074 -0.27614,0.34831 -0.33783,0.75321 -0.0667,0.40094 0.0907,0.78503 0.15242,0.38015 0.50073,0.65629 0.34832,0.27614 0.75819,0.34177 0.40489,0.0617 0.78503,-0.0907 0.37517,-0.15637 0.65132,-0.50468 z"
         style="font-style:normal;font-variant:normal;font-weight:600;font-stretch:normal;font-size:6.3499999px;line-height:1.25;font-family:Montserrat;-inkscape-font-specification:'Montserrat Semi-Bold';letter-spacing:3.60363007px;word-spacing:0px;fill:#ffffff;fill-opacity:1;stroke:#ffffff;stroke-width:0.26458299;stroke-opacity:1"
         id="path2231"
         inkscape:connector-curvature="0" />
      <path
         d="m 474.63065,215.8323 4.00941,1.91901 -0.29333,0.61287 -3.77315,0.91146 2.71495,1.29945 -0.35365,0.73887 -4.00941,-1.91901 0.29333,-0.61287 3.77315,-0.91146 -2.71495,-1.29944 z"
         style="font-style:normal;font-variant:normal;font-weight:600;font-stretch:normal;font-size:6.3499999px;line-height:1.25;font-family:Montserrat;-inkscape-font-specification:'Montserrat Semi-Bold';letter-spacing:3.60363007px;word-spacing:0px;fill:#ffffff;fill-opacity:1;stroke:#ffffff;stroke-width:0.26458299;stroke-opacity:1"
         id="path2233"
         inkscape:connector-curvature="0" />
    </g>
    <g
       transform="rotate(1.4380873,-328.22445,-14227.153)"
       id="g2253"
       style="stroke:#ffffff;stroke-width:0.211667;stroke-miterlimit:4;stroke-dasharray:none;stroke-opacity:1">
      <path
         d="m 416.18813,179.19341 q -0.4427,0.50703 -1.0219,0.72628 -0.57981,0.2103 -1.17669,0.10222 -0.5927,-0.11287 -1.08538,-0.54304 -0.49269,-0.43017 -0.68028,-1.00701 -0.18759,-0.57685 -0.0526,-1.17555 0.13435,-0.60765 0.57705,-1.11469 0.35917,-0.41136 0.79919,-0.62569 0.44002,-0.21432 0.91732,-0.21065 l 0.0271,0.73173 q -0.70964,0.0211 -1.17322,0.55202 -0.3007,0.3444 -0.38568,0.7507 -0.0898,0.40211 0.0445,0.78906 0.13422,0.38694 0.47383,0.68347 0.33962,0.29652 0.74113,0.37733 0.40151,0.0808 0.79263,-0.0582 0.38634,-0.14318 0.68704,-0.48758 0.46358,-0.53095 0.38397,-1.24113 l 0.73348,-0.0677 q 0.068,0.47243 -0.0892,0.94212 -0.15302,0.46491 -0.51219,0.87628 z"
         style="font-style:normal;font-variant:normal;font-weight:600;font-stretch:normal;font-size:6.3499999px;line-height:1.25;font-family:Montserrat;-inkscape-font-specification:'Montserrat Semi-Bold';letter-spacing:3.50572991px;word-spacing:0px;fill:#ffffff;fill-opacity:1;stroke:#ffffff;stroke-width:0.211667;stroke-miterlimit:4;stroke-dasharray:none;stroke-opacity:1"
         id="path2237"
         inkscape:connector-curvature="0" />
      <path
         d="m 422.17208,173.87398 q -0.55634,0.39005 -1.17118,0.46437 -0.61848,0.0691 -1.17217,-0.17861 -0.55733,-0.25294 -0.92915,-0.78328 -0.37183,-0.53035 -0.41597,-1.13532 -0.0478,-0.61017 0.23168,-1.16285 0.27583,-0.55787 0.83217,-0.94791 0.55634,-0.39005 1.17482,-0.45917 0.61484,-0.0743 1.16853,0.17341 0.55368,0.24774 0.92915,0.78328 0.37547,0.53554 0.41961,1.14052 0.0441,0.60497 -0.23168,1.16284 -0.27947,0.55267 -0.83581,0.94272 z m -0.41557,-0.59274 q 0.36396,-0.25517 0.54213,-0.62049 0.17452,-0.37052 0.13676,-0.77834 -0.0414,-0.41301 -0.29657,-0.77698 -0.25517,-0.36396 -0.62569,-0.53848 -0.37416,-0.17971 -0.77834,-0.13676 -0.40782,0.0377 -0.77178,0.29292 -0.36396,0.25518 -0.53848,0.6257 -0.17816,0.36532 -0.13676,0.77833 0.0378,0.40782 0.29292,0.77178 0.25517,0.36397 0.62934,0.54368 0.37052,0.17452 0.77834,0.13677 0.40417,-0.043 0.76813,-0.29813 z"
         style="font-style:normal;font-variant:normal;font-weight:600;font-stretch:normal;font-size:6.3499999px;line-height:1.25;font-family:Montserrat;-inkscape-font-specification:'Montserrat Semi-Bold';letter-spacing:3.50572991px;word-spacing:0px;fill:#ffffff;fill-opacity:1;stroke:#ffffff;stroke-width:0.211667;stroke-miterlimit:4;stroke-dasharray:none;stroke-opacity:1"
         id="path2239"
         inkscape:connector-curvature="0" />
      <path
         d="m 431.83446,169.02833 -1.00844,-2.76845 -0.54374,2.78984 -0.34632,0.12531 -2.19004,-1.76019 0.98951,2.73479 -0.74043,0.2679 -1.51234,-4.17981 0.63891,-0.23117 2.66245,2.17 0.62766,-3.36044 0.63892,-0.23117 1.51831,4.17765 z"
         style="font-style:normal;font-variant:normal;font-weight:600;font-stretch:normal;font-size:6.3499999px;line-height:1.25;font-family:Montserrat;-inkscape-font-specification:'Montserrat Semi-Bold';letter-spacing:3.50572991px;word-spacing:0px;fill:#ffffff;fill-opacity:1;stroke:#ffffff;stroke-width:0.211667;stroke-miterlimit:4;stroke-dasharray:none;stroke-opacity:1"
         id="path2241"
         inkscape:connector-curvature="0" />
      <path
         d="m 438.58221,163.21739 q 0.57517,-0.0556 1.01698,0.093 0.44814,0.14804 0.70991,0.47997 0.26178,0.33194 0.30886,0.81862 0.0465,0.48036 -0.14622,0.86264 -0.1933,0.37596 -0.60475,0.60715 -0.40513,0.23058 -0.9803,0.28621 l -0.99864,0.0966 0.12351,1.27675 -0.82167,0.0795 -0.42798,-4.42435 z m 0.1993,2.45602 q 0.53725,-0.052 0.79334,-0.30641 0.25609,-0.25444 0.21512,-0.67792 -0.041,-0.42347 -0.34107,-0.6241 -0.30012,-0.20064 -0.83736,-0.14867 l -0.96071,0.0929 0.16997,1.7571 z"
         style="font-style:normal;font-variant:normal;font-weight:600;font-stretch:normal;font-size:6.3499999px;line-height:1.25;font-family:Montserrat;-inkscape-font-specification:'Montserrat Semi-Bold';letter-spacing:3.50572991px;word-spacing:0px;fill:#ffffff;fill-opacity:1;stroke:#ffffff;stroke-width:0.211667;stroke-miterlimit:4;stroke-dasharray:none;stroke-opacity:1"
         id="path2243"
         inkscape:connector-curvature="0" />
      <path
         d="m 445.77621,163.18347 0.81932,0.10082 -0.45757,3.71845 2.3067,0.28385 -0.0853,0.69327 -3.12602,-0.38467 z"
         style="font-style:normal;font-variant:normal;font-weight:600;font-stretch:normal;font-size:6.3499999px;line-height:1.25;font-family:Montserrat;-inkscape-font-specification:'Montserrat Semi-Bold';letter-spacing:3.50572991px;word-spacing:0px;fill:#ffffff;fill-opacity:1;stroke:#ffffff;stroke-width:0.211667;stroke-miterlimit:4;stroke-dasharray:none;stroke-opacity:1"
         id="path2245"
         inkscape:connector-curvature="0" />
      <path
         d="m 455.78448,169.41996 -0.23007,0.6528 -3.14419,-1.10815 1.47752,-4.19224 3.06034,1.07859 -0.23007,0.65279 -2.28178,-0.80419 -0.38416,1.08998 2.02426,0.71343 -0.22585,0.64082 -2.02426,-0.71343 -0.40737,1.15586 z"
         style="font-style:normal;font-variant:normal;font-weight:600;font-stretch:normal;font-size:6.3499999px;line-height:1.25;font-family:Montserrat;-inkscape-font-specification:'Montserrat Semi-Bold';letter-spacing:3.50572991px;word-spacing:0px;fill:#ffffff;fill-opacity:1;stroke:#ffffff;stroke-width:0.211667;stroke-miterlimit:4;stroke-dasharray:none;stroke-opacity:1"
         id="path2247"
         inkscape:connector-curvature="0" />
      <path
         d="m 462.26612,169.32879 -1.25187,-0.77662 0.36822,-0.59356 3.20522,1.98841 -0.36822,0.59356 -1.25187,-0.77662 -1.97503,3.18364 -0.70148,-0.43518 z"
         style="font-style:normal;font-variant:normal;font-weight:600;font-stretch:normal;font-size:6.3499999px;line-height:1.25;font-family:Montserrat;-inkscape-font-specification:'Montserrat Semi-Bold';letter-spacing:3.50572991px;word-spacing:0px;fill:#ffffff;fill-opacity:1;stroke:#ffffff;stroke-width:0.211667;stroke-miterlimit:4;stroke-dasharray:none;stroke-opacity:1"
         id="path2249"
         inkscape:connector-curvature="0" />
      <path
         d="m 468.35775,178.1119 -0.48108,0.49763 -2.39686,-2.3171 3.08947,-3.19581 2.33294,2.25531 -0.48107,0.49763 -1.73944,-1.68155 -0.80326,0.83091 1.54312,1.49177 -0.47224,0.48851 -1.54313,-1.49177 -0.85181,0.88113 z"
         style="font-style:normal;font-variant:normal;font-weight:600;font-stretch:normal;font-size:6.3499999px;line-height:1.25;font-family:Montserrat;-inkscape-font-specification:'Montserrat Semi-Bold';letter-spacing:3.50572991px;word-spacing:0px;fill:#ffffff;fill-opacity:1;stroke:#ffffff;stroke-width:0.211667;stroke-miterlimit:4;stroke-dasharray:none;stroke-opacity:1"
         id="path2251"
         inkscape:connector-curvature="0" />
    </g>
  </g>
</svg>
